<svg width="391.201" height="71.601" viewBox="0 0 391.201 71.601" xmlns="http://www.w3.org/2000/svg"><g id="svgGroup" stroke-linecap="round" fill-rule="evenodd" font-size="9pt" stroke="#000" stroke-width="0.25mm" fill="none" style="stroke:#000;stroke-width:0.25mm;fill:none"><path d="M 360.801 70.1 L 337.401 70.1 L 337.401 69.1 L 338.601 68.7 A 6.044 6.044 0 0 0 340.421 67.758 Q 341.867 66.632 342.138 64.657 A 7.035 7.035 0 0 0 342.201 63.7 L 342.201 10.3 A 10.047 10.047 0 0 0 342.145 9.206 Q 342.004 7.919 341.501 7.2 A 2.732 2.732 0 0 0 340.793 6.52 Q 340.051 6.013 338.801 5.7 L 337.301 5.3 L 337.301 4.3 L 354.901 0 L 356.501 0.9 L 356.101 15 L 356.101 27.5 Q 359.601 24.6 363.651 22.55 Q 367.701 20.5 372.601 20.5 A 18.477 18.477 0 0 1 377.017 20.999 A 12.795 12.795 0 0 1 382.951 24.2 Q 386.801 27.9 386.801 35.6 L 386.801 63.8 A 8.145 8.145 0 0 0 386.895 65.08 Q 387.005 65.77 387.243 66.332 A 4.04 4.04 0 0 0 387.601 67 Q 388.401 68.2 390.401 68.8 L 391.201 69.1 L 391.201 70.1 L 367.801 70.1 L 367.801 69.1 L 369.001 68.8 A 5.891 5.891 0 0 0 370.86 67.818 Q 372.213 66.725 372.515 64.843 A 7.231 7.231 0 0 0 372.601 63.7 L 372.601 32.3 Q 372.601 29.131 371.753 27.531 A 3.616 3.616 0 0 0 371.251 26.8 A 3.829 3.829 0 0 0 369.85 25.843 Q 368.641 25.339 366.794 25.303 A 14.815 14.815 0 0 0 366.501 25.3 Q 364.301 25.3 361.701 26.15 A 15.051 15.051 0 0 0 358.993 27.359 Q 357.789 28.038 356.564 28.974 A 25.006 25.006 0 0 0 356.401 29.1 L 356.401 63.9 A 6.363 6.363 0 0 0 356.685 65.869 Q 357.315 67.811 359.346 68.664 A 6.892 6.892 0 0 0 360.001 68.9 L 360.801 69.1 L 360.801 70.1 Z M 116.901 70.1 L 93.401 70.1 L 93.401 69.1 L 94.801 68.7 A 5.297 5.297 0 0 0 96.609 67.821 Q 97.825 66.88 98.167 65.214 A 7.033 7.033 0 0 0 98.301 63.8 L 98.301 32.5 A 11.027 11.027 0 0 0 98.245 31.353 Q 98.123 30.186 97.73 29.464 A 2.794 2.794 0 0 0 97.601 29.25 A 2.617 2.617 0 0 0 96.818 28.504 Q 96.11 28.052 94.972 27.815 A 9.181 9.181 0 0 0 94.901 27.8 L 93.401 27.4 L 93.401 26.4 L 110.501 20.6 L 111.501 21.6 L 112.301 27.6 Q 115.801 24.5 120.201 22.5 A 22.652 22.652 0 0 1 125.255 20.856 A 19.075 19.075 0 0 1 128.901 20.5 A 19.399 19.399 0 0 1 132.904 20.888 Q 135.402 21.415 137.293 22.658 A 10.783 10.783 0 0 1 139.051 24.1 A 11.138 11.138 0 0 1 141.599 28.31 Q 142.601 31.169 142.601 35.1 L 142.601 63.9 A 5.985 5.985 0 0 0 142.899 65.858 Q 143.666 68.08 146.401 68.8 L 147.301 69.1 L 147.301 70.1 L 123.701 70.1 L 123.701 69.1 L 125.001 68.7 Q 127.929 67.78 128.407 64.97 A 6.969 6.969 0 0 0 128.501 63.8 L 128.501 31.9 A 9.213 9.213 0 0 0 128.184 29.367 Q 127.37 26.527 124.471 25.773 A 9.429 9.429 0 0 0 122.101 25.5 A 10.5 10.5 0 0 0 118.32 26.254 Q 116.804 26.838 115.206 27.874 A 26.63 26.63 0 0 0 112.501 29.9 L 112.501 63.9 Q 112.501 67.8 116.001 68.8 L 116.901 69.1 L 116.901 70.1 Z M 174.701 70.1 L 151.201 70.1 L 151.201 69.1 L 152.601 68.7 A 5.297 5.297 0 0 0 154.409 67.821 Q 155.625 66.88 155.967 65.214 A 7.033 7.033 0 0 0 156.101 63.8 L 156.101 32.5 A 11.027 11.027 0 0 0 156.045 31.353 Q 155.923 30.186 155.53 29.464 A 2.794 2.794 0 0 0 155.401 29.25 A 2.617 2.617 0 0 0 154.618 28.504 Q 153.91 28.052 152.772 27.815 A 9.181 9.181 0 0 0 152.701 27.8 L 151.201 27.4 L 151.201 26.4 L 168.301 20.6 L 169.301 21.6 L 170.101 27.6 Q 173.601 24.5 178.001 22.5 A 22.652 22.652 0 0 1 183.055 20.856 A 19.075 19.075 0 0 1 186.701 20.5 A 19.399 19.399 0 0 1 190.704 20.888 Q 193.202 21.415 195.093 22.658 A 10.783 10.783 0 0 1 196.851 24.1 A 11.138 11.138 0 0 1 199.399 28.31 Q 200.401 31.169 200.401 35.1 L 200.401 63.9 A 5.985 5.985 0 0 0 200.699 65.858 Q 201.466 68.08 204.201 68.8 L 205.101 69.1 L 205.101 70.1 L 181.501 70.1 L 181.501 69.1 L 182.801 68.7 Q 185.729 67.78 186.207 64.97 A 6.969 6.969 0 0 0 186.301 63.8 L 186.301 31.9 A 9.213 9.213 0 0 0 185.984 29.367 Q 185.17 26.527 182.271 25.773 A 9.429 9.429 0 0 0 179.901 25.5 A 10.5 10.5 0 0 0 176.12 26.254 Q 174.604 26.838 173.006 27.874 A 26.63 26.63 0 0 0 170.301 29.9 L 170.301 63.9 Q 170.301 67.8 173.801 68.8 L 174.701 69.1 L 174.701 70.1 Z M 0.401 67.6 L 0.501 55.7 L 1.501 55.7 L 4.901 61.7 A 24.845 24.845 0 0 0 6.596 64.386 Q 7.549 65.692 8.576 66.664 A 12.394 12.394 0 0 0 9.751 67.65 A 9.689 9.689 0 0 0 13.409 69.278 Q 14.746 69.58 16.294 69.599 A 17.01 17.01 0 0 0 16.501 69.6 A 17.493 17.493 0 0 0 19.712 69.322 Q 21.575 68.974 23.062 68.19 A 9.686 9.686 0 0 0 24.251 67.45 Q 27.122 65.357 27.199 61.891 A 8.647 8.647 0 0 0 27.201 61.7 A 8.466 8.466 0 0 0 26.827 59.129 A 6.898 6.898 0 0 0 25.101 56.3 Q 23.361 54.56 19.152 53.095 A 43.222 43.222 0 0 0 17.301 52.5 L 13.101 51.2 Q 7.001 49.4 3.501 45.6 A 13.123 13.123 0 0 1 0.009 36.812 A 16.919 16.919 0 0 1 0.001 36.3 A 14.261 14.261 0 0 1 4.552 25.701 A 18.828 18.828 0 0 1 5.201 25.1 A 16.889 16.889 0 0 1 11.41 21.686 Q 15.175 20.5 20.101 20.5 A 31.881 31.881 0 0 1 25.475 20.939 A 27.886 27.886 0 0 1 27.451 21.35 Q 30.901 22.2 34.101 23.9 L 33.501 34.7 L 32.501 34.7 L 29.001 28.5 Q 27.167 25.315 25.38 23.947 A 6.974 6.974 0 0 0 25.251 23.85 A 5.954 5.954 0 0 0 23.603 23.027 Q 22.013 22.5 19.701 22.5 Q 16.301 22.5 13.301 24.4 A 6.742 6.742 0 0 0 11.415 26.129 Q 10.405 27.523 10.311 29.405 A 7.859 7.859 0 0 0 10.301 29.8 Q 10.301 33.2 12.851 35.2 A 15.826 15.826 0 0 0 14.893 36.54 Q 17.085 37.765 20.299 38.865 A 51.813 51.813 0 0 0 20.401 38.9 L 24.901 40.2 Q 32.101 42.4 35.201 46.25 A 13.977 13.977 0 0 1 38.252 54.174 A 17.859 17.859 0 0 1 38.301 55.5 Q 38.301 62.667 32.758 67.039 A 17.894 17.894 0 0 1 32.551 67.2 A 19.375 19.375 0 0 1 26.385 70.284 Q 22.088 71.6 16.401 71.6 Q 11.501 71.6 7.601 70.45 A 42.49 42.49 0 0 1 2.142 68.44 A 37.199 37.199 0 0 1 0.401 67.6 Z M 237.601 42.8 L 237.601 34.9 Q 237.601 28.1 235.951 25.35 Q 234.301 22.6 230.801 22.6 A 5.997 5.997 0 0 0 229.141 22.818 A 4.502 4.502 0 0 0 227.001 24.15 A 5.077 5.077 0 0 0 226.19 25.409 Q 225.584 26.702 225.298 28.712 A 21.681 21.681 0 0 0 225.201 29.5 L 225.001 30.6 A 16.328 16.328 0 0 1 224.738 32.922 Q 224.244 35.486 222.901 36.9 A 6.201 6.201 0 0 1 218.397 38.898 A 7.71 7.71 0 0 1 218.201 38.9 A 6.926 6.926 0 0 1 216.107 38.596 A 5.671 5.671 0 0 1 213.901 37.3 A 5.308 5.308 0 0 1 212.282 34.129 A 7.546 7.546 0 0 1 212.201 33 Q 212.201 28.9 215.051 26.1 A 15.568 15.568 0 0 1 218.842 23.393 A 21.563 21.563 0 0 1 222.601 21.9 A 33.712 33.712 0 0 1 229.441 20.637 A 40.447 40.447 0 0 1 232.801 20.5 A 29.215 29.215 0 0 1 238.198 20.967 Q 241.221 21.536 243.599 22.798 A 14.773 14.773 0 0 1 246.551 24.85 Q 250.332 28.241 251.165 34.945 A 32.927 32.927 0 0 1 251.401 39 L 251.401 61.1 Q 251.401 65.6 255.601 65.6 L 257.801 65.6 L 258.701 66.4 Q 256.801 68.8 254.551 70.1 Q 252.96 71.019 250.444 71.288 A 21.134 21.134 0 0 1 248.201 71.4 A 15.265 15.265 0 0 1 245.394 71.158 Q 243.812 70.862 242.557 70.203 A 8.033 8.033 0 0 1 241.251 69.35 A 9.504 9.504 0 0 1 237.994 64.268 A 11.87 11.87 0 0 1 237.901 63.9 A 44.789 44.789 0 0 1 234.092 67.529 A 37.165 37.165 0 0 1 231.751 69.35 Q 228.825 71.44 224.303 71.589 A 21.366 21.366 0 0 1 223.601 71.6 A 16.854 16.854 0 0 1 218.763 70.934 A 13.682 13.682 0 0 1 213.851 68.3 A 10.697 10.697 0 0 1 210.196 61.974 A 16.196 16.196 0 0 1 209.901 58.8 A 9.403 9.403 0 0 1 211.593 53.483 Q 212.516 52.106 213.941 50.807 A 19.974 19.974 0 0 1 214.701 50.15 A 20.148 20.148 0 0 1 218.651 47.665 Q 222.713 45.673 228.804 44.401 A 71.737 71.737 0 0 1 229.801 44.2 A 257.288 257.288 0 0 1 231.473 43.893 Q 232.385 43.728 233.401 43.55 Q 235.401 43.2 237.601 42.8 Z M 87.901 45 L 58.101 45 A 50.133 50.133 0 0 0 58.411 50.311 Q 59.062 55.905 61.065 59.258 A 12.048 12.048 0 0 0 61.951 60.55 A 12.078 12.078 0 0 0 69.128 64.903 A 18.779 18.779 0 0 0 73.101 65.3 A 25.648 25.648 0 0 0 76.314 65.111 Q 79.166 64.75 81.201 63.7 A 18.018 18.018 0 0 0 84.875 61.154 A 23.359 23.359 0 0 0 87.001 59 L 88.001 59.9 Q 84.901 65.4 79.751 68.5 A 21.218 21.218 0 0 1 72.513 71.164 A 28.72 28.72 0 0 1 67.401 71.6 A 28.175 28.175 0 0 1 60.309 70.739 A 23.43 23.43 0 0 1 54.801 68.55 Q 49.301 65.5 46.201 59.8 A 24.88 24.88 0 0 1 43.617 52.283 A 34.192 34.192 0 0 1 43.101 46.2 A 31.144 31.144 0 0 1 43.765 39.605 A 22.841 22.841 0 0 1 46.701 32.25 A 24.847 24.847 0 0 1 52.935 25.405 A 23.554 23.554 0 0 1 55.951 23.5 Q 61.601 20.5 67.801 20.5 Q 74.301 20.5 78.901 23.15 Q 83.501 25.8 85.951 30.35 Q 88.401 34.9 88.401 40.7 Q 88.401 41.8 88.301 42.95 Q 88.201 44.1 87.901 45 Z M 301.215 70.908 A 30.855 30.855 0 0 0 307.901 71.6 A 31.743 31.743 0 0 0 313.313 71.157 A 23.735 23.735 0 0 0 321.051 68.45 Q 326.601 65.3 329.651 59.55 A 25.344 25.344 0 0 0 332.117 52.401 A 34.506 34.506 0 0 0 332.701 45.9 Q 332.701 38 329.451 32.3 Q 326.201 26.6 320.601 23.55 A 24.168 24.168 0 0 0 315.414 21.465 A 28.303 28.303 0 0 0 307.901 20.5 A 30.782 30.782 0 0 0 305.289 20.609 A 25.284 25.284 0 0 0 295.151 23.6 Q 289.501 26.7 286.251 32.4 A 23.867 23.867 0 0 0 283.691 39.156 A 31.449 31.449 0 0 0 283.001 45.9 A 34.759 34.759 0 0 0 283.43 51.469 A 26.112 26.112 0 0 0 286.051 59.5 Q 289.101 65.3 294.701 68.45 A 23.633 23.633 0 0 0 301.215 70.908 Z M 307.901 69.6 A 9.923 9.923 0 0 0 310.323 69.32 A 6.987 6.987 0 0 0 313.501 67.6 Q 315.406 65.785 316.365 61.418 A 29.356 29.356 0 0 0 316.551 60.5 A 44.149 44.149 0 0 0 317.047 56.952 Q 317.501 52.53 317.501 46.1 Q 317.501 36.7 316.551 31.6 A 25.171 25.171 0 0 0 315.945 29.043 Q 315.184 26.483 314.006 25.046 A 6.056 6.056 0 0 0 313.501 24.5 A 7.078 7.078 0 0 0 309.952 22.695 A 10.249 10.249 0 0 0 307.901 22.5 A 9.965 9.965 0 0 0 305.419 22.793 A 7.193 7.193 0 0 0 302.251 24.5 A 7.207 7.207 0 0 0 300.914 26.241 Q 299.774 28.253 299.151 31.6 A 43.84 43.84 0 0 0 298.66 35.107 Q 298.291 38.694 298.218 43.626 A 169.191 169.191 0 0 0 298.201 46.1 Q 298.201 53.765 298.846 58.577 A 38.403 38.403 0 0 0 299.151 60.5 A 24.488 24.488 0 0 0 299.76 63.057 Q 300.547 65.675 301.788 67.118 A 6.019 6.019 0 0 0 302.251 67.6 A 7.314 7.314 0 0 0 305.942 69.424 A 10.405 10.405 0 0 0 307.901 69.6 Z M 58.101 43 L 75.201 43 A 95.399 95.399 0 0 0 75.418 40.19 Q 75.96 31.457 74.401 27.3 A 8.395 8.395 0 0 0 72.998 24.821 Q 71.382 22.899 68.673 22.569 A 9.684 9.684 0 0 0 67.501 22.5 A 7.992 7.992 0 0 0 64.775 22.951 A 7.115 7.115 0 0 0 62.551 24.25 A 7.05 7.05 0 0 0 61.207 25.835 Q 60.203 27.408 59.502 29.89 A 25.972 25.972 0 0 0 59.351 30.45 A 30.137 30.137 0 0 0 58.735 33.588 Q 58.249 36.891 58.13 41.468 A 112.215 112.215 0 0 0 58.101 43 Z M 237.601 61.6 L 237.601 44.8 L 235.601 45.2 Q 234.601 45.4 233.301 45.6 A 18.324 18.324 0 0 0 229.63 46.966 A 13.616 13.616 0 0 0 225.951 49.65 A 9.565 9.565 0 0 0 223.476 54.458 A 13.947 13.947 0 0 0 223.201 57.3 A 14.16 14.16 0 0 0 223.368 59.554 Q 223.765 62.009 225.101 63.45 A 6.461 6.461 0 0 0 227.129 64.955 A 6.056 6.056 0 0 0 229.701 65.5 Q 231.701 65.5 233.451 64.55 Q 235.201 63.6 237.601 61.6 Z" vector-effect="non-scaling-stroke"/></g></svg>